<svg xmlns="http://www.w3.org/2000/svg" viewBox="0 0 500 500"><g id="freepik--background-simple--inject-108"><path d="M178.75,75.66l.11,1.23a27.88,27.88,0,0,0,16.82,23.44,27.34,27.34,0,0,0,3.77,1.26,29.3,29.3,0,0,0,26.74-7.06c4.13-3.9,7.34-9.16,12.58-11.3,6.83-2.77,14.37.75,20.84,4.18s14,6.94,20.83,4.14c4.27-1.76,7.31-5.75,9.14-10,4.83-11.3,2-24.92-5.34-34.62S265.62,31.13,253.88,28c-16.44-4.35-34.74-3.07-49.59,5.51S178.7,58.49,178.75,75.66Z" style="fill:#f5f5f5"></path><circle cx="413.31" cy="401.71" r="32.62" transform="translate(-155.93 311.32) rotate(-35.16)" style="fill:#f5f5f5"></circle></g><g id="freepik--Table--inject-108"><path d="M469.75,474.62c0,.14-98.39.26-219.74.26s-219.76-.12-219.76-.26,98.37-.26,219.76-.26S469.75,474.47,469.75,474.62Z" style="fill:#263238"></path></g><g id="freepik--Character--inject-108"><path d="M361.8,220.05c-.92,3.54-1.65,5.94-1.8,6.42A34,34,0,0,0,361.8,220.05Z" style="fill:none"></path><path d="M211.75,105.94l-12.24,9.52C219.05,140.6,259,152.8,289.2,160.77l2.94-15.26C264.17,138.09,228.06,126.92,211.75,105.94Z" style="fill:#FFC300"></path><path d="M369.07,191.38c-6.75-18.49-18.66-24.17-18.66-24.17,3.5,10.95,14,42.67,11.39,52.84a34,34,0,0,1-1.8,6.42l0,.09h0a36.83,36.83,0,0,1-5.4,9.42c-18.54,23.68-80.76,28.1-130.75,31.64-6.7.48-13,.93-19.34,1.42l1.2,15.46c6.26-.49,12.56-.94,19.24-1.41,58.54-4.16,115.12-8.88,137.9-38C373.68,231.25,374.93,207.46,369.07,191.38Z" style="fill:#FFC300"></path><path d="M360,226.47l0,.08h0Z" style="fill:#FFC300"></path><path d="M320.25,169.36c8.08,3,34.88,14,40.19,31.58a40.69,40.69,0,0,1,1.36,19.11,170,170,0,0,0,3.59-17.22,37.37,37.37,0,0,0-17.52-37.35,129.57,129.57,0,0,0-22.28-10.68c-5.85-2.14-14-4.24-23.45-6.68-3.17-.82-6.52-1.69-10-2.61l-2.94,15.26c3.14.83,6.17,1.61,9.07,2.36C307.31,165.47,315.13,167.48,320.25,169.36Z" style="fill:#FFC300"></path><g style="opacity:0.30000000000000004"><path d="M347.24,165.09a130,130,0,0,0-21.65-10.29c-5.85-2.14-14-4.24-23.45-6.68-3.17-.82-6.52-1.69-10-2.61l-2.94,15.26c3.14.83,6.17,1.61,9.07,2.36,9,2.34,16.86,4.35,22,6.23,8.08,3,34.21,12.53,39.52,30.11,2,6.66,3.12,14.56,2,20.58C371,191.23,365,175.8,347.24,165.09Z"></path></g><path d="M346,250.07a13,13,0,0,1-.8-3,13.35,13.35,0,0,1-.57-3.07,7.54,7.54,0,0,1,1.08,3A7.65,7.65,0,0,1,346,250.07Z" style="fill:#263238"></path><path d="M342.25,251.31a5.41,5.41,0,0,1-1-2.46,5.53,5.53,0,0,1-.23-2.63,9.29,9.29,0,0,1,.74,2.51A9,9,0,0,1,342.25,251.31Z" style="fill:#263238"></path><path d="M339,257.38a20,20,0,0,1-1.38-4.36,20.24,20.24,0,0,1-.87-4.5,40,40,0,0,1,2.25,8.86Z" style="fill:#263238"></path><path d="M357.94,240.38a42,42,0,0,1-1.37-6.1,12.26,12.26,0,0,1,1.37,6.1Z" style="fill:#263238"></path><path d="M354.47,242.6a9.21,9.21,0,0,1-1.22-5.09,23.8,23.8,0,0,1,1.22,5.09Z" style="fill:#263238"></path><path d="M351.53,249.39a20.75,20.75,0,0,1-1.37-4.36,20.2,20.2,0,0,1-.87-4.49,21,21,0,0,1,1.37,4.36A20.31,20.31,0,0,1,351.53,249.39Z" style="fill:#263238"></path><path d="M334.29,255.19a6.19,6.19,0,0,1-.9-2.35,6.27,6.27,0,0,1-.39-2.48,6.19,6.19,0,0,1,.9,2.35A6.27,6.27,0,0,1,334.29,255.19Z" style="fill:#263238"></path><path d="M330.57,257.44a7.9,7.9,0,0,1-1-2.6,7.63,7.63,0,0,1-.5-2.73,14.82,14.82,0,0,1,1.5,5.33Z" style="fill:#263238"></path><path d="M328.28,262.31a40.76,40.76,0,0,1-2.62-8.83,20.83,20.83,0,0,1,1.56,4.34A21.44,21.44,0,0,1,328.28,262.31Z" style="fill:#263238"></path><path d="M323.52,260.63a8.58,8.58,0,0,1-.95-2.82,8.38,8.38,0,0,1-.44-2.93,8.48,8.48,0,0,1,.94,2.81A8.58,8.58,0,0,1,323.52,260.63Z" style="fill:#263238"></path><path d="M319.6,262.06a6.68,6.68,0,0,1-1.12-2.6,6.78,6.78,0,0,1-.44-2.8,23.65,23.65,0,0,1,1.56,5.4Z" style="fill:#263238"></path><path d="M316.63,267.51a49.2,49.2,0,0,1-2.52-9.75,47.44,47.44,0,0,1,2.52,9.75Z" style="fill:#263238"></path><path d="M361.32,239.86a31.86,31.86,0,0,1-1.59-5.52,31.91,31.91,0,0,1-1.07-5.64,32.41,32.41,0,0,1,1.58,5.52A32.55,32.55,0,0,1,361.32,239.86Z" style="fill:#263238"></path><path d="M362.82,231.54a26.88,26.88,0,0,1-2-7.19,13.44,13.44,0,0,1,1.27,3.53A13.21,13.21,0,0,1,362.82,231.54Z" style="fill:#263238"></path><path d="M365.35,226.52a25.63,25.63,0,0,1-1.49-4.22,26.38,26.38,0,0,1-1.24-4.3,15.32,15.32,0,0,1,1.73,4.14A15.58,15.58,0,0,1,365.35,226.52Z" style="fill:#263238"></path><path d="M367.88,223.66a38.93,38.93,0,0,1-2.08-5.92,37.44,37.44,0,0,1-1.58-6.06,37.32,37.32,0,0,1,2.08,5.91A37.69,37.69,0,0,1,367.88,223.66Z" style="fill:#263238"></path><path d="M369.82,201.06c-.12,0-1-2.27-2.18-5.07a19.09,19.09,0,0,1-1.7-5.26c.13,0,1,2.27,2.18,5.06A19.2,19.2,0,0,1,369.82,201.06Z" style="fill:#263238"></path><path d="M368.49,214.36a19.32,19.32,0,0,1-1.81-4,18.61,18.61,0,0,1-1.33-4.18,18.16,18.16,0,0,1,1.81,4A18.57,18.57,0,0,1,368.49,214.36Z" style="fill:#263238"></path><path d="M369.07,207.34a19,19,0,0,1-1.88-4.16,19.48,19.48,0,0,1-1.39-4.34,20.51,20.51,0,0,1,1.87,4.16A20.87,20.87,0,0,1,369.07,207.34Z" style="fill:#263238"></path><path d="M177.09,176.17C184.73,139.53,191.35,97,244.4,98.1c0,0,32.9,4.61,49.6,27.86,9.82,13.68,20.81,74.25,24.83,122.32h0v0c.17,2,.05,15.67.2,17.58L179.69,284.66,168.15,286s-1.62-22.3,0-59.76C169.25,201,174.38,189.14,177.09,176.17Z" style="fill:#263238"></path><path d="M252.14,111.52l-3.47-3-35,16.23a10,10,0,0,0-8.93,10.14L211,251.33c.35,7.9,2.28,14.66,7.37,20.71l5.36,6.37c12.21,14.53,35.69,12.08,43.91-5a12.93,12.93,0,0,0,1.11-3.07,25.08,25.08,0,0,0,.39-2.63c.59-9.43.24-17.55.24-17.55.11-10.32.11-14.55.11-14.46s21.76-3.63,26.25-32c2.23-14.12.7-33.32-1.1-52.2C292.15,125.31,273.19,110.42,252.14,111.52Z" style="fill:#ffbf9d"></path><path d="M265.87,199.48a4.88,4.88,0,0,0-3.26-2.07l-.29,0h.08c-3.48-.23-7.39-.49-10,.86a4,4,0,0,0-1.72,2.29,2.9,2.9,0,0,0,2.12,3.85c1.76.27,3.33-1.14,5.09-1.36a13.81,13.81,0,0,1,4.4.07c1.29.31,2.27.95,3.25.06A3,3,0,0,0,265.87,199.48Z" style="fill:#ff9a6c"></path><path d="M251.29,185.45c-.06.08-1-.73-2.73-1.64a17,17,0,0,0-14.74-.57c-1.81.77-2.8,1.5-2.85,1.42a2.58,2.58,0,0,1,.66-.56,13.24,13.24,0,0,1,2-1.2,16.09,16.09,0,0,1,15.07.59,14.93,14.93,0,0,1,1.94,1.35C251.1,185.2,251.31,185.43,251.29,185.45Z" style="fill:#ff9a6c"></path><path d="M281.43,129.88a4.43,4.43,0,0,1,.56,1.66,11.64,11.64,0,0,1,.26,1.9,2.84,2.84,0,0,1-.12,1.2,1.22,1.22,0,0,1-1.16.81,1.67,1.67,0,0,1-1.23-.61,3.5,3.5,0,0,1-.58-1,5,5,0,0,1-.3-1.93,2.81,2.81,0,0,1,.46-1.71c.09,0-.14.66-.09,1.71a5.08,5.08,0,0,0,.38,1.75c.24.62.68,1.31,1.36,1.31s.85-.81.8-1.47a15.92,15.92,0,0,0-.14-1.86A8.88,8.88,0,0,1,281.43,129.88Z" style="fill:#fafafa"></path><path d="M244.06,172.16a3.64,3.64,0,0,1-3.51,3.68,3.48,3.48,0,0,1-3.75-3.28,3.64,3.64,0,0,1,3.5-3.68A3.48,3.48,0,0,1,244.06,172.16Z" style="fill:#263238"></path><path d="M283.4,172.16a3.65,3.65,0,0,1-3.51,3.68,3.49,3.49,0,0,1-3.76-3.28,3.65,3.65,0,0,1,3.51-3.68A3.49,3.49,0,0,1,283.4,172.16Z" style="fill:#263238"></path><path d="M291.28,161.06c-.45.48-3.21-1.56-7.13-1.55s-6.79,2-7.22,1.5c-.21-.21.25-1.07,1.5-2a10,10,0,0,1,5.78-1.79,9.56,9.56,0,0,1,5.67,1.83C291.09,160,291.5,160.85,291.28,161.06Z" style="fill:#263238"></path><path d="M251.06,162.08c-.5.42-3-1.89-6.94-2.28s-7,1.27-7.33.75c-.18-.23.36-1,1.7-1.82a10,10,0,0,1,5.93-1.18,9.61,9.61,0,0,1,5.46,2.4C251,161,251.3,161.89,251.06,162.08Z" style="fill:#263238"></path><path d="M266.74,189.3c0-.22,2.41-.65,6.36-1.15,1-.11,1.95-.31,2.12-1s-.19-1.8-.67-3c-.95-2.42-1.93-4.95-3-7.61-4.12-10.85-7.1-19.77-6.66-19.93s4.13,8.5,8.25,19.34l2.84,7.67c.38,1.13,1,2.42.52,3.92a2.53,2.53,0,0,1-1.64,1.47,7.13,7.13,0,0,1-1.7.24C269.22,189.5,266.75,189.52,266.74,189.3Z" style="fill:#263238"></path><path d="M269.48,235.67a72.24,72.24,0,0,1-38-10.11s9.58,19.65,38,17Z" style="fill:#ff9a6c"></path><path d="M234.56,150.29c.22-1.1,3.74-1,7.74-2.09s7.14-2.71,7.8-1.83c.3.43-.15,1.49-1.35,2.68a12.42,12.42,0,0,1-5.57,3,12,12,0,0,1-6.27-.05C235.34,151.54,234.48,150.81,234.56,150.29Z" style="fill:#263238"></path><path d="M277.15,146c.7-.88,3.38.1,6.63.2s6-.48,6.62.46c.27.46-.18,1.34-1.4,2.16a9.6,9.6,0,0,1-10.68-.53C277.19,147.35,276.83,146.43,277.15,146Z" style="fill:#263238"></path><path d="M208,184.56s15.29-2.12,41.05-45.86a126.49,126.49,0,0,0,13-30.84l-13.34-1.24s-38.91,13.13-39.55,13.67-8.92,20.92-8.92,20.92Z" style="fill:#263238"></path><path d="M212.82,182.47c0-2.12-2.45-7.1-4.54-7.43-5.58-.86-15.63-.4-15.71,13.76-.11,19.36,19.35,15.48,19.38,14.92S212.85,189.77,212.82,182.47Z" style="fill:#ffbf9d"></path><path d="M206.08,196.35c-.08-.06-.34.24-.91.5a3.35,3.35,0,0,1-2.52,0c-2-.76-3.74-4-3.82-7.51a11.13,11.13,0,0,1,1-4.82,3.87,3.87,0,0,1,2.56-2.57,1.7,1.7,0,0,1,2,.93c.26.54.13.93.24,1s.41-.32.26-1.12a2.21,2.21,0,0,0-.75-1.22,2.59,2.59,0,0,0-1.87-.5c-1.49.09-2.84,1.46-3.54,3a11.59,11.59,0,0,0-1.2,5.39c.1,3.9,2.08,7.57,4.88,8.39a3.63,3.63,0,0,0,3.08-.49C206.05,196.82,206.15,196.39,206.08,196.35Z" style="fill:#ff9a6c"></path><path d="M263.67,204a7.09,7.09,0,0,0-1.09-.66,5.39,5.39,0,0,0-3.38-.11c-1.43.29-3.06,1.14-5.13,1.21a4.1,4.1,0,0,1-3-1.11,2.85,2.85,0,0,1-.86-1.54,2.82,2.82,0,0,1,.29-1.8,5.34,5.34,0,0,1,1.08-1.39,4.73,4.73,0,0,1,1.43-1,8.12,8.12,0,0,1,3.11-.57c1,0,1.94,0,2.81,0s1.67,0,2.42-.08a7.19,7.19,0,0,1,3.53.5,4.38,4.38,0,0,1,.82.52c.17.15.25.23.24.25s-.39-.27-1.15-.59a7.58,7.58,0,0,0-3.42-.31c-.74.06-1.56.13-2.44.14s-1.82,0-2.79,0a7.9,7.9,0,0,0-2.93.56,4.93,4.93,0,0,0-2.24,2.12,2.24,2.24,0,0,0,.45,2.74,3.66,3.66,0,0,0,2.65,1c1.9,0,3.56-.83,5.05-1.09a5.38,5.38,0,0,1,3.54.29,2.9,2.9,0,0,1,.8.57C263.62,203.85,263.68,204,263.67,204Z" style="fill:#263238"></path><path d="M180.73,255s0-.15-.06-.46-.07-.79-.12-1.38c-.1-1.23-.25-3-.45-5.27-.43-4.61-1-11.23-1.81-19.4-.36-4.1-.73-8.59-1-13.43a120.65,120.65,0,0,1,0-15.45,71.89,71.89,0,0,1,1.07-8.31,60.13,60.13,0,0,1,2.18-8.46,46.55,46.55,0,0,1,8.87-16c4.14-4.81,9.3-8.34,14.34-11.41s10.1-5.78,14.57-8.87a95.72,95.72,0,0,0,21-19.55,98.4,98.4,0,0,0,10.55-16.3c1-2.06,1.8-3.66,2.28-4.78l.57-1.25c.13-.28.21-.42.21-.42s-.05.15-.16.44l-.53,1.28c-.44,1.12-1.2,2.74-2.19,4.82a96,96,0,0,1-31.5,36.16c-4.48,3.12-9.53,5.83-14.57,8.91s-10.13,6.57-14.21,11.31A46.23,46.23,0,0,0,181.05,183a60.21,60.21,0,0,0-2.17,8.39,75.62,75.62,0,0,0-1.09,8.25,122,122,0,0,0,0,15.4c.24,4.83.58,9.32.92,13.42.69,8.19,1.31,14.82,1.65,19.41.17,2.29.29,4.08.35,5.29,0,.58.05,1,.06,1.37S180.73,255,180.73,255Z" style="fill:#455a64"></path><path d="M336.77,474.62l-22.13-91.4s.33-5,5.27-23.39S315,320.5,315,320.5L306.32,262c-3.87-4-35.19-7.12-35.19-7.12s-3.32,14.26-26,16.46-35.24-16.46-35.24-16.46c-16.16-.84-35.45-.84-35.45-.84l1.36,54.44,3.53,81.32-15.27,84.85Z" style="fill:#455a64"></path><path d="M175.8,254s-27.75,2.82-27.34,40.59c.35,31.88,4,67.69,4,67.69l53.3-21.5L190.6,287.92C190.6,286.9,175.8,254,175.8,254Z" style="fill:#455a64"></path><path d="M335,287.92c-5.37-11.35-9.13-16.79-16-22-3.22-2.47-20.47-6.84-20.47-6.84v51l10.31,51,50.47-15.92S342,302.85,335,287.92Z" style="fill:#455a64"></path><path d="M302.31,301.45a4.43,4.43,0,0,1,.56.56c.35.39.88.95,1.51,1.72a64.5,64.5,0,0,1,5,6.76,70.41,70.41,0,0,1,10.11,25.7,67,67,0,0,1,1,15.24,83.77,83.77,0,0,1-1.64,12.36c-.71,3.48-1.41,6.26-1.89,8.19-.25.92-.45,1.65-.59,2.2a4.86,4.86,0,0,1-.24.76,4.18,4.18,0,0,1,.14-.78c.12-.56.28-1.3.49-2.23.43-1.94,1.07-4.73,1.73-8.21A87.89,87.89,0,0,0,320,351.4,68.43,68.43,0,0,0,319,336.28a72.28,72.28,0,0,0-9.91-25.59,76.55,76.55,0,0,0-4.83-6.84c-.61-.78-1.12-1.35-1.44-1.77A4.68,4.68,0,0,1,302.31,301.45Z" style="fill:#263238"></path><path d="M305.76,306a69.42,69.42,0,0,1,3.74-11.43,34.93,34.93,0,0,1-1.62,5.8A34,34,0,0,1,305.76,306Z" style="fill:#263238"></path><path d="M186,284c.13-.05,4.43,12.82,9.59,28.73s9.24,28.84,9.1,28.89-4.43-12.82-9.59-28.73S185.86,284,186,284Z" style="fill:#263238"></path><g style="opacity:0.30000000000000004"><path d="M177.57,411.92c9.12,2.79,23.36,9,32.48,11.8,9.54,2.91,20.36,5.71,29,.81,2.27-1.28,4.37-3.09,7-3.44s5.22.89,7.64,2c21.24,9.92,48.84,9,72,5.2l-5.89-13.48-76.4-18.56-57.23,6.44Z"></path></g><path d="M228.14,384.29s-26-13.26-32.1-14.8-25.41,2.75-25.63,7.4a64.61,64.61,0,0,0,0,7.4s-5.69,4-3.28,8.21,4.82,4.17,4.82,4.17-3.51,3.05-1.54,5.9,4,6.36,4,6.36-.84,3.72,1.44,5.25,17.83,3.95,29,3.29,16.65-2.19,16.65-2.19Z" style="fill:#ffbf9d"></path><path d="M355.18,346.42c.9,2.47,8.84,47.74,8.2,63.46-.65,16.14-9,24.56-25.35,23.07s-91.17-11.82-109.77-29.3L217.49,397,229,371.08s17.11,8.76,28.64,12.11,62.66.18,62.66.18L318.58,366l1.14-8.41h0Z" style="fill:#ffbf9d"></path><path d="M341.44,406c-.1,0-.24-1.92-1.21-4.84A24.86,24.86,0,0,0,323.66,385c-3-.89-4.89-1-4.88-1.07a6.29,6.29,0,0,1,1.35,0,21.62,21.62,0,0,1,3.63.68A24.14,24.14,0,0,1,340.58,401a21.57,21.57,0,0,1,.78,3.61A6,6,0,0,1,341.44,406Z" style="fill:#ff9a6c"></path><path d="M237.23,259.37l-26.1,95.25-7-13.15L159.8,359.34a241.89,241.89,0,0,0,11.46,26.05c19.06,36.4,44.37,38.51,60,33.58s25.56-57.53,28.93-80c3.9-26,4.53-82,4.53-82Z" style="fill:#ffbf9d"></path><path d="M206.92,396.11a11.6,11.6,0,0,1-.64-1.61,16.26,16.26,0,0,1-.62-1.95c-.19-.77-.47-1.63-.64-2.62s-.41-2.06-.52-3.24-.24-2.42-.32-3.74a55.85,55.85,0,0,1,.36-8.61,63.47,63.47,0,0,1,3.79-15.13c.35-.94.7-1.78,1-2.5s.6-1.35.86-1.85a9.61,9.61,0,0,1,.83-1.52,11.53,11.53,0,0,1-.65,1.61c-.23.51-.48,1.14-.77,1.87s-.63,1.57-.95,2.51a68.82,68.82,0,0,0-3.62,15.08,58.91,58.91,0,0,0-.4,8.52c.07,1.31.11,2.56.27,3.71s.29,2.24.46,3.22.39,1.85.55,2.62.36,1.42.53,1.95A10.56,10.56,0,0,1,206.92,396.11Z" style="fill:#ff9a6c"></path><path d="M254.05,369.32a2.36,2.36,0,0,1,0,.56c0,.36-.12.9-.23,1.58-.21,1.37-.56,3.35-1.07,5.78A156.71,156.71,0,0,1,247.62,396c-2.42,7.2-5.69,13.36-8.84,17.24a21.3,21.3,0,0,1-4.21,4.12,8.3,8.3,0,0,1-1.37.84,2.8,2.8,0,0,1-.5.24,2.11,2.11,0,0,1,.45-.33,12.67,12.67,0,0,0,1.3-.91,23.39,23.39,0,0,0,4-4.19c3-3.89,6.23-10,8.64-17.18a186,186,0,0,0,5.22-18.62c.55-2.42,1-4.38,1.23-5.74.13-.64.24-1.15.32-1.57A2.09,2.09,0,0,1,254.05,369.32Z" style="fill:#ff9a6c"></path><path d="M264.35,275.71s.69-16.12,1-22.5-10-31.43-10.22-32-1.43-8.46-1.43-8.46,2.27,1.17,4.43-1.85c1.25-1.77-.8-7.39-2.67-8.59s-5.06-.11-5.06-.11,0-3.63-5.49-3.52c0,0-.77-5.61-12.2-3.74,0,0,.11-1.43-3.3-1.21s-13.19,2.31-13.85,4.62,2.09,16,2.09,19.89.11,4.18,1.76,7.58,15,25.23,18.17,30l-3.71,15.74" style="fill:#ffbf9d"></path><path d="M233.89,271.57a1.41,1.41,0,0,1,0-.27c0-.2.1-.46.17-.79l.69-3.08c.62-2.71,1.53-6.65,2.68-11.64l0,.11c-2.41-3.62-5.11-8-8.16-12.92s-6.43-10.41-9.84-16.54c-.42-.78-.78-1.57-1.16-2.39a9.37,9.37,0,0,1-.78-2.64c-.2-1.85,0-3.67-.29-5.51-.43-3.71-1.07-7.52-1.58-11.45-.13-1-.25-2-.34-3a12.43,12.43,0,0,1,0-3.11,2.39,2.39,0,0,1,1.06-1.28,8.88,8.88,0,0,1,1.38-.76,22.41,22.41,0,0,1,2.93-1.08,48.59,48.59,0,0,1,6.15-1.42,22.52,22.52,0,0,1,3.21-.35,6,6,0,0,1,1.66.2A1.54,1.54,0,0,1,233,195l-.3-.28,1.93-.25c.67,0,1.35-.1,2-.12a13.66,13.66,0,0,1,5,.74,5.37,5.37,0,0,1,3.5,3.59l-.26-.22a7.65,7.65,0,0,1,3.67.71,3.75,3.75,0,0,1,2.09,3.06l-.34-.24a9.74,9.74,0,0,1,2.61-.46,4.71,4.71,0,0,1,2.61.57,5.62,5.62,0,0,1,1.69,2,14.62,14.62,0,0,1,1,2.34,10.52,10.52,0,0,1,.51,2.48,5.09,5.09,0,0,1-.08,1.29,2.6,2.6,0,0,1-.6,1.18,5.12,5.12,0,0,1-2,1.57,3.15,3.15,0,0,1-2.52,0l.35-.25c.36,2.34.72,4.65,1.1,6.89a16.43,16.43,0,0,0,.34,1.62q.33.78.63,1.56c.42,1,.82,2.07,1.22,3.09,1.59,4.07,3.05,8,4.33,11.69s2.42,7.23,3.22,10.58c.17.84.4,1.65.5,2.48.06.41.14.81.18,1.22s0,.81,0,1.21c0,1.58-.14,3.08-.21,4.51-.29,5.71-.51,10.23-.67,13.36-.09,1.53-.15,2.72-.2,3.55,0,.39-.05.69-.06.91a1.44,1.44,0,0,1,0,.31v-.31c0-.22,0-.52,0-.91,0-.83.07-2,.12-3.56.13-3.13.31-7.66.54-13.36.05-1.43.11-2.93.17-4.51,0-.38,0-.78-.05-1.17s-.12-.79-.18-1.2c-.11-.81-.35-1.61-.52-2.45-.81-3.32-2-6.82-3.25-10.53s-2.77-7.6-4.37-11.66L255.61,223l-.64-1.56a13.81,13.81,0,0,1-.37-1.71c-.39-2.25-.75-4.55-1.12-6.9l-.07-.43.42.18a2.74,2.74,0,0,0,2.12,0,4.65,4.65,0,0,0,1.76-1.43,2.67,2.67,0,0,0,.56-2.12,10.22,10.22,0,0,0-.49-2.36,12.83,12.83,0,0,0-1-2.25,5.4,5.4,0,0,0-1.52-1.84A4.21,4.21,0,0,0,253,202a9.35,9.35,0,0,0-2.46.44l-.32.1,0-.34a3.25,3.25,0,0,0-1.82-2.61,7,7,0,0,0-3.42-.65h-.21l-.05-.23a4,4,0,0,0-1.16-1.93,6.62,6.62,0,0,0-2-1.24,13.23,13.23,0,0,0-4.83-.71c-.67,0-1.33.07-2,.12l-1.9.25-.3,0v-.32c0-.31-.44-.66-.9-.77a5.43,5.43,0,0,0-1.51-.18,20.53,20.53,0,0,0-3.12.34,48.56,48.56,0,0,0-6.09,1.4,23.38,23.38,0,0,0-2.87,1.05,8.17,8.17,0,0,0-1.3.72,1.88,1.88,0,0,0-.86,1,12.51,12.51,0,0,0,0,2.93c.09,1,.21,2,.33,3,.5,3.93,1.14,7.73,1.56,11.46.28,1.87.09,3.77.29,5.52a15.86,15.86,0,0,0,1.87,4.88c3.37,6.09,6.78,11.59,9.77,16.55s5.69,9.33,8.06,13l0,.05,0,.06-2.8,11.6c-.33,1.33-.59,2.35-.76,3.07l-.21.78A1.25,1.25,0,0,1,233.89,271.57Z" style="fill:#ff9a6c"></path><path d="M253,207.85s.3.18.55.65a5.11,5.11,0,0,1,.52,2,7.37,7.37,0,0,1-.14,2.8,8.1,8.1,0,0,1-.38-2.75A18,18,0,0,0,253,207.85Z" style="fill:#ff9a6c"></path><path d="M250.42,202.22a8.67,8.67,0,0,1-2.51,1.42,7.43,7.43,0,0,0-2.55,1.59,4.89,4.89,0,0,0-1.18,3.36,28.92,28.92,0,0,0,.68,6.83c.35,1.73.67,2.78.59,2.81a10.65,10.65,0,0,1-.95-2.73,24.15,24.15,0,0,1-.84-6.94,7.49,7.49,0,0,1,.34-2,4.25,4.25,0,0,1,1-1.65,7.44,7.44,0,0,1,2.76-1.6C249.43,202.69,250.38,202.15,250.42,202.22Z" style="fill:#ff9a6c"></path><path d="M244.9,198.72a4.08,4.08,0,0,1-1,.33l-2.84.7-4.21,1a3.37,3.37,0,0,0-2,1.15,4.26,4.26,0,0,0-.66,2.46c0,.91.1,1.82.16,2.71s.13,1.73.2,2.55c.11,1.59.21,3,.3,4.31s.13,2.23.15,2.92a3.89,3.89,0,0,1,0,1.07,4.13,4.13,0,0,1-.19-1.06c-.09-.68-.2-1.67-.32-2.9s-.26-2.72-.41-4.3c-.07-.82-.15-1.67-.23-2.55s-.18-1.79-.17-2.76a4.68,4.68,0,0,1,.77-2.75,3.77,3.77,0,0,1,2.32-1.31l4.24-.87c1.21-.24,2.19-.43,2.87-.54A4.42,4.42,0,0,1,244.9,198.72Z" style="fill:#ff9a6c"></path><path d="M238.18,228.58c0,.06-.45,0-1-.41a4.56,4.56,0,0,1-1.86-4.74c.16-.66.41-1,.47-1a7.71,7.71,0,0,0,.22,3.46A7.62,7.62,0,0,0,238.18,228.58Z" style="fill:#ff9a6c"></path><path d="M250,228.07c0,.06-.44,0-1-.45a5.57,5.57,0,0,1-1.76-2,5.64,5.64,0,0,1-.64-2.62c0-.7.16-1.11.22-1.1a7.88,7.88,0,0,0,3.2,6.2Z" style="fill:#ff9a6c"></path><path d="M230.22,230.07c0,.05-.49-.17-1.07-.74a7,7,0,0,1-2-5.79c.11-.8.33-1.26.39-1.24a12.65,12.65,0,0,0,.42,4.2A12.4,12.4,0,0,0,230.22,230.07Z" style="fill:#ff9a6c"></path><path d="M233.15,194.9a8.87,8.87,0,0,1-1,.36c-.65.23-1.58.6-2.71,1.09l-1.85.82a7.62,7.62,0,0,0-1.93,1.16,5,5,0,0,0-1.91,4.47c.23,1.83.64,3.62.91,5.23s.52,3,.74,4.28.36,2.22.46,2.9a4,4,0,0,1,.1,1.08,4,4,0,0,1-.3-1c-.16-.67-.37-1.65-.62-2.87s-.54-2.69-.86-4.26-.7-3.35-.95-5.27a5.28,5.28,0,0,1,.45-2.82,6.05,6.05,0,0,1,1.67-2.07,7.94,7.94,0,0,1,2.07-1.19l1.88-.76A12.32,12.32,0,0,1,233.15,194.9Z" style="fill:#ff9a6c"></path><path d="M204.38,418.4a3.28,3.28,0,0,1-.54-.18l-1.53-.61a49.53,49.53,0,0,1-5.44-2.64,53.51,53.51,0,0,1-15.13-12.89,96.53,96.53,0,0,1-10.65-16.84c-1.17-2.26-2.08-4.12-2.69-5.41-.28-.6-.5-1.09-.69-1.49a3.07,3.07,0,0,1-.21-.53,2.25,2.25,0,0,1,.31.49q.3.57.78,1.44c.7,1.32,1.65,3.13,2.82,5.33a105.75,105.75,0,0,0,10.73,16.68,56.06,56.06,0,0,0,14.91,12.9,59.76,59.76,0,0,0,5.34,2.77l1.49.7A2.39,2.39,0,0,1,204.38,418.4Z" style="fill:#ff9a6c"></path><path d="M208.83,205.91a5.34,5.34,0,1,1-5.33-5.34A5.32,5.32,0,0,1,208.83,205.91Z" style="fill:#455a64"></path><path d="M328.28,275.15c-4.68-9.15-8.41-19.81-10.13-34.57l-48.7.91c.47,18-3,39.39-3.42,56.3a194.16,194.16,0,0,0,49.41-1c.43-4.9-2.56-9.45-2.13-14.35,1.46,3.56,6.34,6.75,7.8,10.31,4.83-1.91,13.54-7.53,13.54-7.53C334.65,285.78,330.55,279.58,328.28,275.15Z" style="fill:#263238"></path><path d="M294.18,291.36a3,3,0,0,1-.12-.7c-.07-.51-.15-1.18-.26-2-.22-1.76-.47-4.31-.74-7.46-.53-6.32-1-15.06-.92-24.73s.66-18.42,1.29-24.72c.31-3.15.6-5.7.85-7.45.11-.84.21-1.51.28-2a3.17,3.17,0,0,1,.14-.7,6.26,6.26,0,0,1,0,.71c-.05.52-.12,1.19-.19,2-.19,1.76-.42,4.31-.69,7.47-.53,6.3-1.05,15-1.13,24.68s.33,18.39.77,24.7c.22,3.15.42,5.71.57,7.47.07.84.12,1.52.16,2A3.45,3.45,0,0,1,294.18,291.36Z" style="fill:#455a64"></path><path d="M324.13,283a.87.87,0,0,1-.14-.21l-.36-.65-1.36-2.51c-.59-1.09-1.29-2.44-2-4s-1.69-3.37-2.57-5.4-1.92-4.23-2.89-6.65-2-5-3-7.76c-2-5.51-4-11.65-5.75-18.19s-3-12.87-4-18.65c-.46-2.89-.92-5.64-1.21-8.23s-.59-5-.79-7.22-.33-4.21-.45-6-.19-3.28-.22-4.52,0-2.15-.07-2.85v-.74a2.28,2.28,0,0,1,0-.25.61.61,0,0,1,0,.25l.06.74c0,.69.1,1.64.17,2.85s.14,2.75.3,4.5.26,3.75.52,5.95.48,4.61.85,7.19.79,5.32,1.26,8.21c1,5.76,2.35,12.07,4.07,18.6s3.72,12.65,5.69,18.16c1,2.74,2,5.35,3,7.75S317.09,268,318,270s1.76,3.83,2.5,5.43,1.41,2.95,2,4.05l1.27,2.56.32.67Q324.15,283,324.13,283Z" style="fill:#455a64"></path><g style="opacity:0.30000000000000004"><path d="M330.52,452.84,286,445.33l-60-6.28-51.13-9.43-3.45,4c9,12.84,41,17.86,60.83,19.21,17,1.16,33.59,2.45,50.62,2.9s38.83,1.74,51.32,13.33Z"></path></g><path d="M122.86,366.39c.32,1.58.7,3.15,1.13,4.7,0-.11,0-.21-.09-.33C123.66,369.85,123.29,368.35,122.86,366.39Z" style="fill:none"></path><path d="M246.89,430.29c-29.37-1.7-61-7.67-76.7-13.48-14.68-5.45-31.24-13.29-41.3-33.82a54.61,54.61,0,0,1-6-16.6c-2.33-10.62-6.31-35.28.22-58.77-5,4.61-9,13.49-11.83,27.11-4.92,23.86-1.86,42.91,4.87,57,9.53,19.89,31.08,34.38,45.67,39.22,28,9.29,53.11,12.91,84.13,14.7,41.7,2.41,88.93,7.22,109.94,26.25l9.61-10.61C339.91,438.1,293.65,433,246.89,430.29Z" style="fill:#FFC300"></path><path d="M122.86,366.39c-2.57-12.61-1.6-25.87,3.26-35.05,6.09-11.49,19.34-19,22.44-19.29h-.1V294.61c-7.25,0-17.1,5.39-25.38,13C116.55,331.11,120.53,355.77,122.86,366.39Z" style="fill:#FFC300"></path><g style="opacity:0.30000000000000004"><path d="M122.86,366.39c-2.57-12.61-1.6-25.87,3.26-35.05,6.09-11.49,19.34-19,22.44-19.29h-.1V294.61c-5.55,0-12.62,3.16-19.34,8.05a20.67,20.67,0,0,0-7.72,12.13C116.62,335,120.76,356.84,122.86,366.39Z"></path></g><path d="M125.13,374.72a2.79,2.79,0,0,1-.28-.66c-.16-.45-.43-1.1-.69-2a66.81,66.81,0,0,1-1.91-7.37c-.65-3.15-1.23-6.94-1.68-11.17s-.78-8.89-1.16-13.77a87.66,87.66,0,0,1-.24-13.84,48.8,48.8,0,0,1,2-11.12,40.21,40.21,0,0,1,2.92-7c.41-.8.8-1.38,1-1.79a4.07,4.07,0,0,1,.39-.61,3.39,3.39,0,0,1-.3.66c-.21.42-.57,1-.94,1.84a43.31,43.31,0,0,0-2.76,7.05,50.43,50.43,0,0,0-1.91,11,90.78,90.78,0,0,0,.28,13.77c.38,4.88.69,9.54,1.12,13.76s1,8,1.56,11.15,1.24,5.66,1.74,7.38c.24.87.47,1.53.6,2A6.23,6.23,0,0,1,125.13,374.72Z" style="fill:#263238"></path><path d="M157.84,418.24a7.49,7.49,0,0,1,0-3.15,7.63,7.63,0,0,1,.76-3.06,13.31,13.31,0,0,1-.25,3.12A13.91,13.91,0,0,1,157.84,418.24Z" style="fill:#263238"></path><path d="M161.68,419.08a9.1,9.1,0,0,1,.2-2.62,9.41,9.41,0,0,1,.47-2.58,9,9,0,0,1-.67,5.2Z" style="fill:#263238"></path><path d="M165.52,424.77a19.51,19.51,0,0,1,.39-4.55,20.47,20.47,0,0,1,.91-4.49,39.77,39.77,0,0,1-1.3,9Z" style="fill:#263238"></path><path d="M144.92,409.86a7.69,7.69,0,0,1,0-3.15,7.83,7.83,0,0,1,.76-3.06,40.46,40.46,0,0,1-.72,6.21Z" style="fill:#263238"></path><path d="M148.6,411.71a8.9,8.9,0,0,1,.21-2.62,8.61,8.61,0,0,1,.47-2.58,5.62,5.62,0,0,1,0,2.65A5.47,5.47,0,0,1,148.6,411.71Z" style="fill:#263238"></path><path d="M152.24,418.15a39.77,39.77,0,0,1,1.3-9,19.61,19.61,0,0,1-.39,4.56A20.46,20.46,0,0,1,152.24,418.15Z" style="fill:#263238"></path><path d="M170,422.1a5.94,5.94,0,0,1,.13-2.51,6.32,6.32,0,0,1,.65-2.43,12.48,12.48,0,0,1-.78,4.94Z" style="fill:#263238"></path><path d="M173.93,423.94a7.56,7.56,0,0,1,.21-2.77,7.79,7.79,0,0,1,.72-2.69,7.36,7.36,0,0,1-.21,2.78A7.44,7.44,0,0,1,173.93,423.94Z" style="fill:#263238"></path><path d="M176.73,428.54a20.81,20.81,0,0,1,.58-4.57,20.56,20.56,0,0,1,1.09-4.48,41,41,0,0,1-1.67,9.05Z" style="fill:#263238"></path><path d="M181.29,426.37a8.28,8.28,0,0,1,.13-3,8.57,8.57,0,0,1,.64-2.89,8.21,8.21,0,0,1-.13,3A8.67,8.67,0,0,1,181.29,426.37Z" style="fill:#263238"></path><path d="M185.33,427.38a9.54,9.54,0,0,1,.33-2.8,9.42,9.42,0,0,1,.65-2.74,6.57,6.57,0,0,1-.14,2.83A6.77,6.77,0,0,1,185.33,427.38Z" style="fill:#263238"></path><path d="M188.86,432.49a24.54,24.54,0,0,1,.48-5,25,25,0,0,1,1-4.94,23.77,23.77,0,0,1-.48,5A24.36,24.36,0,0,1,188.86,432.49Z" style="fill:#263238"></path><path d="M194.71,429.81a8.18,8.18,0,0,1,.12-2.93,8.33,8.33,0,0,1,.64-2.85,8.39,8.39,0,0,1-.12,2.92A8.52,8.52,0,0,1,194.71,429.81Z" style="fill:#263238"></path><path d="M198.64,430.48a19.64,19.64,0,0,1,.65-6.29,10.12,10.12,0,0,1-.06,3.17A9.56,9.56,0,0,1,198.64,430.48Z" style="fill:#263238"></path><path d="M203.21,434.33a36.72,36.72,0,0,1,1.14-8.7A19.09,19.09,0,0,1,204,430,19.39,19.39,0,0,1,203.21,434.33Z" style="fill:#263238"></path><path d="M209.37,432.4a9.33,9.33,0,0,1-.06-3.07,9.17,9.17,0,0,1,.46-3.05,18.16,18.16,0,0,1-.4,6.12Z" style="fill:#263238"></path><path d="M213.75,433a17.66,17.66,0,0,1,.73-5.95,9.06,9.06,0,0,1-.11,3A8.62,8.62,0,0,1,213.75,433Z" style="fill:#263238"></path><path d="M217.77,437.27a23,23,0,0,1,.31-4.81,21.51,21.51,0,0,1,.83-4.75,44.4,44.4,0,0,1-1.14,9.56Z" style="fill:#263238"></path><path d="M223.8,434.83a10.68,10.68,0,0,1-.05-3.32,10.93,10.93,0,0,1,.46-3.3,20.83,20.83,0,0,1-.41,6.62Z" style="fill:#263238"></path><path d="M229.24,435.09a17.31,17.31,0,0,1,.56-6,9.05,9.05,0,0,1,0,3A8.81,8.81,0,0,1,229.24,435.09Z" style="fill:#263238"></path><path d="M234,439.78a34,34,0,0,1,.27-5.21,35.06,35.06,0,0,1,.52-5.19,21.13,21.13,0,0,1,0,5.23A21.63,21.63,0,0,1,234,439.78Z" style="fill:#263238"></path><path d="M240.29,436a17.82,17.82,0,0,1,.25-6.12,9.38,9.38,0,0,1,.13,3.07A9.51,9.51,0,0,1,240.29,436Z" style="fill:#263238"></path><path d="M246.25,436.68a9.65,9.65,0,0,1-.15-3.11,9.32,9.32,0,0,1,.37-3.1,9.69,9.69,0,0,1,.15,3.12A9.28,9.28,0,0,1,246.25,436.68Z" style="fill:#263238"></path><path d="M251.64,441.54a59.59,59.59,0,0,1,1.05-11,57.37,57.37,0,0,1-1.05,11Z" style="fill:#263238"></path><path d="M258.54,437.6a10,10,0,0,1-.23-3.19,10.2,10.2,0,0,1,.29-3.18,10,10,0,0,1,.23,3.19A10.26,10.26,0,0,1,258.54,437.6Z" style="fill:#263238"></path><path d="M264.12,438.44a9.09,9.09,0,0,1-.05-3.36,9.25,9.25,0,0,1,.71-3.27,13.68,13.68,0,0,1-.19,3.33A14.3,14.3,0,0,1,264.12,438.44Z" style="fill:#263238"></path><path d="M268.22,442a25,25,0,0,1,.29-5,23.35,23.35,0,0,1,.81-5,25,25,0,0,1-.29,5A25.34,25.34,0,0,1,268.22,442Z" style="fill:#263238"></path><path d="M274.12,439.52a13.38,13.38,0,0,1,0-3.66,13.21,13.21,0,0,1,.55-3.63,13.23,13.23,0,0,1,0,3.67A12.88,12.88,0,0,1,274.12,439.52Z" style="fill:#263238"></path><path d="M279.76,439.28a9.7,9.7,0,0,1,.12-3.14,9.93,9.93,0,0,1,.63-3.07,9.52,9.52,0,0,1-.11,3.14A9.76,9.76,0,0,1,279.76,439.28Z" style="fill:#263238"></path><path d="M285,443.05a28.54,28.54,0,0,1,.41-4.59,27,27,0,0,1,.65-4.55,26.53,26.53,0,0,1-1.06,9.14Z" style="fill:#263238"></path><path d="M290.69,440.45a10.43,10.43,0,0,1,.15-3.22,10.26,10.26,0,0,1,.67-3.15,9.74,9.74,0,0,1-.15,3.22A10.26,10.26,0,0,1,290.69,440.45Z" style="fill:#263238"></path><path d="M296.18,441.62a10.44,10.44,0,0,1,.13-3.34A10.76,10.76,0,0,1,297,435a21.78,21.78,0,0,1-.79,6.63Z" style="fill:#263238"></path><path d="M300.24,445.65a47.95,47.95,0,0,1,1.49-9.81,23.39,23.39,0,0,1-.49,4.94A24.12,24.12,0,0,1,300.24,445.65Z" style="fill:#263238"></path><path d="M305.26,442.63a26.55,26.55,0,0,1,1.05-6,8.17,8.17,0,0,1-.19,3.08A7.92,7.92,0,0,1,305.26,442.63Z" style="fill:#263238"></path><path d="M310.27,443.55a18.68,18.68,0,0,1,.81-6.12,9,9,0,0,1-.15,3.09A9.42,9.42,0,0,1,310.27,443.55Z" style="fill:#263238"></path><path d="M313.81,448.57a24.18,24.18,0,0,1,.49-5,24.71,24.71,0,0,1,1-4.94,24.64,24.64,0,0,1-.5,5A25.15,25.15,0,0,1,313.81,448.57Z" style="fill:#263238"></path><path d="M318.48,445.31a8.37,8.37,0,0,1,.26-3,8.91,8.91,0,0,1,.78-2.9,8.88,8.88,0,0,1-.27,3A8.75,8.75,0,0,1,318.48,445.31Z" style="fill:#263238"></path><path d="M323.23,446.57a8.51,8.51,0,0,1,.2-3,9.08,9.08,0,0,1,.71-2.94,9.11,9.11,0,0,1-.2,3A8.89,8.89,0,0,1,323.23,446.57Z" style="fill:#263238"></path><path d="M327.66,450.09a16.59,16.59,0,0,1,.42-4.07,16.4,16.4,0,0,1,.94-4,16.59,16.59,0,0,1-.42,4.07A16.4,16.4,0,0,1,327.66,450.09Z" style="fill:#263238"></path><path d="M332.22,448.68a7.18,7.18,0,0,1,.21-2.7,7.08,7.08,0,0,1,.73-2.61,7.44,7.44,0,0,1-.21,2.7A7.15,7.15,0,0,1,332.22,448.68Z" style="fill:#263238"></path><path d="M336.77,450.59a7.7,7.7,0,0,1,.31-2.82,8,8,0,0,1,.81-2.72,7.61,7.61,0,0,1-.3,2.83A8.13,8.13,0,0,1,336.77,450.59Z" style="fill:#263238"></path><path d="M339,455.43a41.31,41.31,0,0,1,2.27-9,21.53,21.53,0,0,1-.88,4.58A20.82,20.82,0,0,1,339,455.43Z" style="fill:#263238"></path><path d="M344.11,454a11.09,11.09,0,0,1,.6-2.83,11.4,11.4,0,0,1,.83-2.78,6.45,6.45,0,0,1-.33,2.9A6.54,6.54,0,0,1,344.11,454Z" style="fill:#263238"></path><path d="M348.49,455.79a7.22,7.22,0,0,1,.42-2.68,7.12,7.12,0,0,1,.93-2.54,14.53,14.53,0,0,1-1.35,5.22Z" style="fill:#263238"></path><path d="M351.13,459.88a16.78,16.78,0,0,1,1.22-3.44,17.2,17.2,0,0,1,1.49-3.34,17.65,17.65,0,0,1-2.71,6.78Z" style="fill:#263238"></path><path d="M139.31,411a64.18,64.18,0,0,1,1.47-11.39A64.18,64.18,0,0,1,139.31,411Z" style="fill:#263238"></path><path d="M136.23,403.2a13.83,13.83,0,0,1,.38-3.73,13.57,13.57,0,0,1,.89-3.63,27.15,27.15,0,0,1-1.27,7.36Z" style="fill:#263238"></path><path d="M132.71,398.07a9.07,9.07,0,0,1,.29-3.27,8.71,8.71,0,0,1,1-3.11,12.35,12.35,0,0,1-.52,3.22A12.87,12.87,0,0,1,132.71,398.07Z" style="fill:#263238"></path><path d="M128.85,398.07a31.86,31.86,0,0,1,.83-5.68A32.4,32.4,0,0,1,131,386.8a32,32,0,0,1-.83,5.69A32.43,32.43,0,0,1,128.85,398.07Z" style="fill:#263238"></path><path d="M126,390.39a18.18,18.18,0,0,1,.88-4.3,18.62,18.62,0,0,1,1.38-4.16,37.05,37.05,0,0,1-2.26,8.46Z" style="fill:#263238"></path><polygon points="351.13 468.65 358.59 455.79 367.09 462.22 356.06 473.44 351.13 468.65" style="fill:#e0e0e0"></polygon></g></svg>